# xmcd
#
# Track frame offsets:
#	150
#	19415
#	35637
#	54351
#	66551
#	79083
#	98801
#	108252
#	123895
#	137202
#	151870
#	167550
#	185488
#	199526
#	214044
#	232505
#	244639
#	254358
#	267433
#	283394
#	295843
#	311923
#	325137
#
# Disc length: 4562 seconds
#
# Revision: 1
# Processed by: cddbd v1.5.2PL0 Copyright (c) Steve Scherf et al.
# Submitted via: audiograbber 1.82.02
#
DISCID=4d11d017
DTITLE=Various Artist - A Century Not Out
DYEAR=2006
DGENRE=Country
TTITLE0=Brian Letton - When The Harvest Days Are Over
TTITLE1=Brian Young - Thistles On The Lullaby
TTITLE2=Shaza Leigh - Let Him Down Easy
TTITLE3=Lindsay Butler - Lachian's River Lullaby
TTITLE4=Shane Hogan - Way Back Then
TTITLE5=Rex Dallas - King Of Them All
TTITLE6=Peter Salata - Thinking About You
TTITLE7=Tom Maxwell - Gidgee After Rain
TTITLE8=Ian Quinn - How Legends Live
TTITLE9=Corinna Cordwell - Mr Man In The Moon
TTITLE10=Brian Letton - Rolling Wagons
TTITLE11=Rick Aitchison - Home In Dirranbandl
TTITLE12=Lindsay Butler - A Bushman Can't Survive
TTITLE13=Jeff Brown - Ghost Of Three Rivers Hotel
TTITLE14=Brian Letton - Hard Calloused Hands
TTITLE15=Terry Gordon - Spirit Of The Outback
TTITLE16=Lindsay Waddington - The Sandfly
TTITLE17=Charmaine Pout - A Thousand Feet
TTITLE18=Ashley Cook - Paddy
TTITLE19=Darryl Lamb - I Never Meant To Lie
TTITLE20=Naomi Therese - Gentle Soldier
TTITLE21=Noel Parlane - The Shade
TTITLE22=Ernie Constance - A Century Still Going Strong
EXTD=
EXTT0=
EXTT1=
EXTT2=
EXTT3=
EXTT4=
EXTT5=
EXTT6=
EXTT7=
EXTT8=
EXTT9=
EXTT10=
EXTT11=
EXTT12=
EXTT13=
EXTT14=
EXTT15=
EXTT16=
EXTT17=
EXTT18=
EXTT19=
EXTT20=
EXTT21=
EXTT22=
PLAYORDER=
